<mxfile host="app.diagrams.net" modified="2024-06-24T15:20:50.812Z" agent="Mozilla/5.0 (Windows NT 10.0; Win64; x64) AppleWebKit/537.36 (KHTML, like Gecko) Chrome/126.0.0.0 Safari/537.36 Edg/126.0.0.0" version="24.6.2" etag="EbDsRZgscvMHuPV_5f0Y" type="github">
  <diagram name="페이지-1" id="wP4PoNDjG1lfTYRoLICZ">
    <mxGraphModel>
      <root>
        <mxCell id="0" />
        <mxCell id="1" parent="0" />
      </root>
    </mxGraphModel>
  </diagram>
</mxfile>
